<?xml version="1.0" encoding="utf-8"?><!-- Uploaded to: SVG Repo, www.svgrepo.com, Generator: SVG Repo Mixer Tools -->
<svg fill="#000000" width="800px" height="800px" viewBox="0 0 24 24" id="pipe-4" data-name="Flat Line" xmlns="http://www.w3.org/2000/svg" class="icon flat-line"><path id="secondary" d="M4,16V4H8V16h4V11a4,4,0,0,1,4-4h5v4H16v5a4,4,0,0,1-4,4H8A4,4,0,0,1,4,16Z" style="fill: rgb(44, 169, 188); stroke-width: 2;"></path><path id="primary" d="M4,16V4H8V16h4V11a4,4,0,0,1,4-4h5v4H16v5a4,4,0,0,1-4,4H8A4,4,0,0,1,4,16Zm17-4V6M9,4H3" style="fill: none; stroke: rgb(0, 0, 0); stroke-linecap: round; stroke-linejoin: round; stroke-width: 2;"></path></svg>